<?xml version="1.0" standalone="no"?>
<!DOCTYPE svg PUBLIC "-//W3C//DTD SVG 20010904//EN"
 "http://www.w3.org/TR/2001/REC-SVG-20010904/DTD/svg10.dtd">
<svg version="1.0" xmlns="http://www.w3.org/2000/svg"
 width="1280.000000pt" height="853.000000pt" viewBox="0 0 1280.000000 853.000000"
 preserveAspectRatio="xMidYMid meet">
<metadata>
Created by potrace 1.15, written by Peter Selinger 2001-2017
</metadata>
<g transform="translate(0.000000,853.000000) scale(0.100000,-0.100000)"
fill="#000000" stroke="none">
<path d="M8770 8168 c-81 -41 -111 -132 -70 -213 l20 -40 -122 -122 c-68 -67
-274 -268 -458 -447 l-335 -326 -1482 0 -1481 0 -135 142 -134 142 14 34 c44
105 -71 234 -182 203 -77 -21 -125 -82 -125 -159 0 -69 77 -152 141 -152 l29
0 0 -105 0 -105 -1812 -2 -1813 -3 -3 -2764 c-2 -2381 0 -2762 12 -2758 8 3
371 195 807 427 436 231 798 419 805 416 9 -3 14 -32 16 -88 l3 -83 160 -3
c88 -1 163 -6 167 -10 4 -4 -44 -59 -107 -122 l-114 -114 -53 3 c-42 2 -61 -3
-88 -21 -62 -42 -81 -95 -67 -194 l5 -40 -165 -88 -164 -88 -22 20 c-70 65
-199 37 -241 -52 -35 -74 -11 -154 63 -203 81 -55 209 -4 228 89 l5 28 1054 0
1053 0 1 -428 0 -427 -37 -20 c-59 -32 -86 -79 -81 -145 5 -64 26 -99 79 -129
49 -28 103 -27 154 4 72 42 98 142 55 212 l-19 32 461 451 462 450 1477 0
1478 0 133 -141 c85 -89 132 -147 129 -157 -15 -71 -12 -118 11 -151 52 -77
125 -99 201 -62 72 35 104 104 85 181 -13 49 -73 106 -122 116 l-36 6 0 104 0
104 1810 0 1810 0 0 2760 c0 1518 -4 2760 -8 2760 -5 0 -368 -191 -807 -424
-439 -233 -805 -422 -812 -419 -9 4 -13 29 -13 89 l0 84 -145 2 c-185 2 -179
1 -187 12 -3 6 46 59 109 120 l116 111 51 0 c101 0 172 75 161 170 -8 68 -7
89 2 93 4 1 78 40 163 86 151 82 155 83 175 66 47 -43 108 -50 169 -20 95 46
119 163 50 240 -63 70 -152 78 -219 19 -19 -17 -40 -46 -47 -65 l-12 -34
-1048 0 -1048 0 0 430 c0 319 3 430 12 430 25 0 77 52 93 95 30 77 -3 158 -79
194 -54 27 -81 26 -136 -1z m152 -39 c31 -17 51 -68 45 -118 -7 -65 -58 -111
-122 -111 -78 0 -135 47 -135 112 0 38 43 102 80 121 36 18 94 16 132 -4z
m-90 -259 l28 0 0 -425 0 -425 -517 0 -518 0 280 272 c154 149 358 349 454
443 l173 172 36 -19 c20 -10 49 -18 64 -18z m-4311 -381 c9 -5 24 -25 34 -45
49 -103 -44 -214 -154 -184 -69 18 -103 82 -81 151 15 45 46 77 86 88 31 9 88
4 115 -10z m173 -334 l128 -135 -179 0 -178 0 0 105 0 105 31 10 c18 6 40 20
49 30 10 11 19 20 20 20 1 0 59 -61 129 -135z m6527 -56 c20 -10 49 -69 49
-98 0 -40 -28 -90 -62 -111 -85 -52 -198 1 -198 92 0 39 39 105 73 122 33 17
103 14 138 -5z m-6771 -265 c0 -133 -3 -168 -15 -180 -12 -12 -39 -15 -137
-12 l-123 3 3 -177 4 -178 -166 0 -166 0 0 34 c0 78 -99 155 -181 141 -84 -14
-152 -114 -130 -191 6 -21 4 -33 -5 -42 -19 -18 -499 -16 -574 2 -30 7 -151
61 -267 120 -117 58 -217 106 -223 106 -6 0 -10 -42 -10 -108 0 -71 -4 -112
-12 -120 -8 -8 -54 -12 -139 -12 l-127 0 -7 30 c-17 76 -118 134 -194 111
-139 -41 -159 -226 -32 -291 63 -32 129 -24 179 23 l23 21 140 -69 c78 -39
147 -79 155 -90 12 -16 14 -291 14 -1790 0 -1662 -1 -1771 -18 -1791 -14 -18
-1524 -827 -1584 -850 -17 -6 -18 129 -18 2735 l0 2741 1805 0 1805 0 0 -166z
m544 1 c101 -108 153 -171 150 -180 -5 -13 -53 -15 -323 -15 -238 0 -321 3
-334 13 -14 10 -17 37 -19 180 l-3 167 187 0 187 0 155 -165z m2621 -1 c-93
-90 -185 -171 -204 -179 -29 -13 -185 -15 -1106 -15 -846 0 -1079 3 -1103 13
-17 7 -101 88 -187 180 l-156 167 1463 0 1463 -1 -170 -165z m1245 -3 c0 -132
-3 -171 -14 -180 -20 -17 -1373 -15 -1379 2 -3 7 72 87 167 179 l171 167 528
0 527 1 0 -169z m2123 142 c3 -16 8 -37 11 -48 6 -17 -13 -31 -149 -103 -96
-51 -165 -81 -178 -79 -12 2 -40 12 -62 22 -80 35 -171 0 -207 -82 l-19 -43
-737 0 c-561 0 -741 3 -750 12 -8 8 -12 63 -12 180 l0 168 1049 0 1049 0 5
-27z m1227 -2849 l0 -2739 -1778 -3 c-977 -1 -1787 0 -1800 3 -22 5 -22 6 -20
178 l3 172 130 5 130 5 3 172 2 173 158 0 158 0 12 -47 c8 -30 25 -58 48 -79
105 -100 272 -15 263 134 -3 64 -6 62 86 62 l85 0 0 -30 c0 -39 27 -41 32 -2
l3 27 178 3 177 2 0 -30 c0 -23 4 -30 20 -30 11 0 20 6 20 14 0 8 4 17 10 21
5 3 108 -44 229 -105 122 -60 223 -110 226 -110 3 0 5 42 5 94 0 52 4 106 10
120 l10 26 134 0 134 0 5 -28 c19 -93 148 -143 228 -89 72 48 97 125 65 201
-30 71 -119 109 -191 81 -24 -8 -50 -24 -60 -35 -17 -19 -20 -17 -159 51 -77
39 -149 81 -158 92 -17 21 -18 127 -17 1787 0 1652 1 1766 17 1787 15 20 1592
866 1600 859 1 -2 2 -1236 2 -2742z m-1621 2610 c29 -6 30 -8 14 -19 -23 -16
-179 -95 -187 -95 -11 0 31 74 50 91 33 28 65 34 123 23z m75 -70 c3 -9 6 -33
6 -53 0 -99 -133 -159 -209 -95 -17 14 -31 32 -31 39 0 16 85 72 154 102 61
27 72 28 80 7z m-6228 -48 c19 -18 19 -292 0 -311 -11 -12 -42 -15 -130 -15
l-116 0 0 171 0 170 117 -2 c70 -1 121 -6 129 -13z m752 -2 c34 -15 291 -295
285 -311 -7 -19 -960 -19 -986 0 -16 11 -17 30 -15 162 l3 149 25 7 c38 11
661 5 688 -7z m2182 6 c0 -6 0 -13 0 -17 0 -5 -6 -8 -12 -8 -7 -1 -12 -6 -11
-12 4 -17 -259 -263 -297 -280 -48 -20 -1473 -19 -1520 1 -42 17 -300 293
-293 312 4 12 181 14 1069 14 696 0 1064 -4 1064 -10z m1477 -2 c10 -8 13 -56
13 -204 l0 -194 -113 0 c-120 0 -137 6 -137 47 l0 23 -727 2 c-401 1 -738 2
-750 2 -12 0 -24 5 -27 12 -2 6 66 78 151 159 l155 149 67 6 c116 13 1353 11
1368 -2z m1528 -15 c-3 -16 -9 -31 -13 -34 -4 -4 -153 -84 -330 -178 l-324
-171 -414 0 -414 0 2 197 3 198 30 6 c17 4 353 7 749 8 l718 1 -7 -27z m31
-65 c5 -7 2 -9 -7 -4 -8 4 -3 -1 10 -11 71 -52 76 -37 -57 -163 -66 -62 -135
-119 -153 -127 -24 -10 -82 -13 -240 -11 l-209 3 303 162 c166 88 312 162 324
162 12 1 25 -4 29 -11z m-7721 -196 c105 -53 191 -103 193 -109 3 -18 -368
-19 -386 -1 -13 13 -17 208 -4 207 4 0 93 -44 197 -97z m1103 55 c26 -24 46
-89 36 -120 -14 -47 -33 -57 -108 -56 -140 1 -178 37 -134 126 31 62 74 86
138 77 25 -4 55 -16 68 -27z m-1665 -108 c26 -28 31 -48 28 -94 -6 -70 -59
-115 -136 -115 -40 0 -52 5 -80 33 -48 48 -54 81 -24 136 31 59 77 84 139 76
32 -4 53 -14 73 -36z m2049 -27 c9 -35 -16 -42 -145 -42 -68 0 -138 5 -156 11
-34 12 -33 11 -25 33 5 14 29 16 164 16 143 0 158 -2 162 -18z m261 6 c7 -7
13 -21 15 -30 3 -16 -8 -18 -102 -18 -112 0 -156 12 -156 42 0 16 10 18 116
18 79 0 119 -4 127 -12z m1075 -1 c15 -7 35 -20 44 -29 17 -17 -8 -18 -533
-18 l-550 0 3 22 c2 14 13 25 28 29 14 4 240 7 503 8 354 0 485 -3 505 -12z
m1505 -1 c3 -8 -2 -21 -12 -30 -16 -14 -90 -16 -711 -16 -621 0 -695 2 -711
16 -10 9 -15 22 -12 30 8 21 1438 21 1446 0z m1577 -4 c0 -43 11 -42 -804 -42
l-780 0 21 21 c15 16 40 24 85 29 35 4 381 8 771 9 675 1 707 0 707 -17z
m-6132 -163 c2 -81 0 -98 -13 -103 -9 -3 -71 22 -148 60 -73 37 -133 67 -134
68 -1 1 3 19 9 41 l11 40 136 -5 136 -5 3 -96z m1992 -245 c0 -234 -3 -353
-10 -349 -5 3 -10 1 -10 -5 0 -26 -120 52 -179 116 l-61 67 0 233 c0 128 4
244 10 258 9 25 11 25 127 29 65 1 119 4 121 5 1 1 2 -158 2 -354z m1462 -1
c180 -191 328 -351 328 -354 0 -3 -135 -137 -299 -297 -184 -179 -307 -292
-319 -292 -31 0 -1130 547 -1141 568 -8 15 -17 607 -11 722 0 3 251 4 557 3
l558 -2 327 -348z m765 67 c-161 -157 -322 -313 -358 -347 l-65 -63 -320 341
c-175 188 -320 344 -321 348 -2 3 303 6 677 6 l679 0 -292 -285z m1911 272 c8
-8 0 -535 -9 -554 -7 -17 -136 -90 -467 -266 -251 -133 -595 -316 -765 -406
l-307 -163 -7 26 c-4 14 -6 35 -5 46 2 26 -36 81 -67 97 -42 23 -97 16 -130
-16 -17 -16 -33 -28 -35 -25 -2 2 -121 130 -265 283 -144 154 -260 283 -259
287 2 5 164 165 361 356 l359 348 796 -5 c438 -3 798 -6 800 -8z m268 -417
c-7 -19 -221 -125 -234 -116 -9 6 -12 70 -10 272 l3 264 120 5 120 5 3 -210
c1 -115 1 -214 -2 -220z m821 429 c-1 -1 -144 -77 -317 -169 -173 -92 -352
-187 -397 -211 l-83 -45 0 213 0 213 399 0 c220 0 399 -1 398 -1z m487 -11 c3
-7 -186 -198 -420 -425 l-425 -413 -207 -111 c-114 -61 -213 -109 -219 -107
-10 4 -13 76 -13 317 l1 311 416 220 416 220 223 0 c165 0 225 -3 228 -12z
m410 -83 c-1 -36 -6 -73 -9 -82 -4 -9 -253 -147 -558 -309 -304 -160 -572
-302 -596 -316 -33 -17 28 47 230 244 151 147 338 330 417 408 l143 140 182 5
c209 6 196 12 191 -90z m-7194 -114 c217 -109 486 -243 596 -296 l202 -98 1
-221 c2 -170 -1 -224 -11 -234 -11 -11 -165 62 -833 394 -451 223 -828 414
-837 424 -15 15 -18 37 -18 120 0 56 3 105 7 109 4 4 118 6 253 4 l245 -3 395
-199z m225 179 c28 -13 68 -25 90 -25 39 0 45 -6 259 -235 174 -187 219 -241
221 -265 2 -16 1 -30 -1 -30 -16 0 -1132 565 -1128 572 3 4 119 8 257 8 247 0
253 -1 302 -25z m140 15 c-3 -5 -28 -10 -55 -10 -27 0 -52 5 -55 10 -4 6 17
10 55 10 38 0 59 -4 55 -10z m426 -25 c4 -16 7 -129 8 -250 l1 -220 -53 55
c-28 31 -126 134 -216 229 l-164 174 24 18 c31 23 61 26 244 25 l150 -1 6 -30z
m6399 -1943 c4 -1418 3 -1763 -8 -1767 -14 -5 -413 190 -424 208 -14 22 -9 67
7 67 9 0 15 9 15 25 0 16 -6 25 -15 25 -8 0 -15 9 -15 20 0 34 40 193 56 222
27 50 44 122 44 189 0 58 -6 78 -46 164 -26 54 -52 121 -58 149 -11 48 -14 52
-51 61 -63 16 -63 17 -49 87 19 89 18 108 -14 180 -33 73 -72 122 -113 143
-31 16 -109 20 -124 6 -6 -5 -27 -14 -47 -21 -24 -7 -54 -30 -83 -63 -40 -46
-43 -53 -31 -72 9 -14 11 -35 6 -75 -7 -45 -4 -61 11 -88 10 -18 19 -48 19
-67 0 -23 6 -38 19 -44 10 -6 21 -19 24 -30 4 -17 -3 -19 -62 -24 -87 -7 -121
-3 -132 14 -8 12 -11 11 -23 -3 -9 -13 -16 -14 -24 -6 -9 9 -18 4 -39 -18 -22
-23 -28 -39 -29 -79 -1 -48 -6 -69 -40 -147 -16 -37 -16 -38 16 -88 19 -29 29
-55 24 -60 -5 -4 -65 18 -134 51 -98 46 -132 58 -157 54 -24 -4 -52 4 -115 36
-46 23 -85 43 -87 45 -2 2 21 54 52 116 32 62 57 123 57 134 0 12 -13 38 -30
59 -16 21 -30 41 -30 45 0 4 -13 24 -30 45 l-30 38 0 562 c0 484 2 566 15 593
9 16 110 121 225 232 l210 203 608 323 c334 177 612 321 617 320 7 -2 12 -603
15 -1764z m-6663 1018 l251 -123 11 -43 c17 -67 15 -1144 -2 -1144 -7 0 -59
15 -114 34 -56 19 -104 32 -106 29 -3 -2 -33 10 -66 27 -48 24 -68 41 -91 78
-43 71 -79 111 -114 127 -17 8 -67 48 -111 89 -74 70 -77 75 -46 66 51 -14 48
-7 -9 24 -46 25 -58 27 -113 21 -67 -7 -117 -22 -117 -36 0 -5 -24 -24 -52
-42 -110 -71 -131 -119 -126 -287 3 -99 5 -108 36 -159 26 -41 34 -66 36 -112
2 -40 -1 -63 -11 -70 -16 -14 -17 -33 -1 -59 10 -15 9 -22 -4 -37 -41 -47 -45
-139 -8 -186 30 -38 162 -239 158 -241 -2 -1 -24 -10 -51 -20 -89 -33 -88 -32
-43 -221 43 -182 82 -140 -338 -363 -230 -122 -369 -190 -380 -186 -15 6 -16
151 -16 1764 0 1398 3 1759 13 1763 6 2 271 -125 587 -283 316 -158 688 -342
827 -410z m4939 -124 c-7 -12 -64 -48 -125 -80 l-111 -57 0 309 c0 281 2 312
18 330 9 12 64 46 122 76 l105 55 3 -306 c2 -249 0 -310 -12 -327z m-4612 498
l38 -46 -41 21 c-31 16 -41 27 -41 46 0 14 1 25 3 25 1 0 20 -21 41 -46z
m4356 -338 l0 -311 -568 -301 -567 -300 -11 45 c-15 67 -78 186 -140 267 l-54
71 -96 6 c-85 5 -128 17 -113 31 18 19 1527 812 1537 808 9 -3 12 -75 12 -316z
m-4332 285 c59 -30 155 -129 180 -184 12 -27 18 -387 7 -387 -3 0 -56 26 -119
57 -77 38 -118 65 -125 80 -11 24 -16 463 -6 463 3 0 31 -13 63 -29z m177 -99
c14 -36 -14 -31 -45 8 l-32 41 35 -17 c20 -10 39 -24 42 -32z m2106 -278 c249
-266 254 -272 255 -314 0 -35 6 -48 31 -69 16 -14 37 -38 47 -52 l16 -26 -211
-111 c-203 -108 -241 -123 -254 -102 -3 6 -15 10 -26 10 -28 0 -739 358 -739
373 -1 6 133 143 297 304 278 272 299 291 314 275 9 -9 131 -139 270 -288z
m-1499 -15 c357 -178 544 -277 546 -287 1 -11 -55 -75 -146 -165 l-149 -149
-29 16 c-16 9 -50 32 -76 50 -58 42 -697 721 -710 755 -10 27 -4 51 12 51 5 0
254 -122 552 -271z m-447 62 c50 -53 186 -199 303 -324 118 -125 206 -224 196
-220 -12 4 -15 3 -10 -6 5 -7 -23 3 -61 22 -37 19 -178 89 -313 154 l-245 120
3 176 c3 160 5 177 20 176 9 -1 58 -45 107 -98z m4495 -100 c-102 -98 -190
-176 -197 -174 -21 8 -17 125 5 147 15 16 359 205 372 205 3 0 -78 -80 -180
-178z m-4640 -610 l0 -448 -49 -7 c-74 -10 -85 -28 -77 -126 3 -44 3 -80 -1
-80 -5 1 -19 7 -33 15 -14 8 -34 14 -44 15 -11 0 -28 7 -38 17 -17 15 -18 46
-18 580 0 368 4 571 10 584 10 18 17 15 130 -41 l120 -60 0 -449z m4410 480
c-1 -41 -7 -79 -18 -100 -9 -19 -66 -80 -127 -136 l-110 -103 5 150 5 151 109
57 c60 32 115 56 122 53 10 -4 14 -25 14 -72z m-4062 -206 c337 -170 436 -230
436 -262 0 -10 -70 -88 -167 -182 -92 -90 -167 -160 -167 -154 0 5 5 14 11 20
8 8 6 18 -5 35 -9 14 -16 40 -16 59 0 34 -6 95 -10 114 -1 6 -2 14 -1 18 1 5
-3 6 -8 3 -5 -4 -12 -2 -15 3 -11 18 -82 48 -126 54 -94 13 -166 -65 -177
-190 -5 -53 -2 -63 28 -112 23 -37 30 -56 22 -58 -7 -3 -21 -23 -32 -46 -33
-70 -34 -71 -69 -53 l-32 16 -2 450 c-2 248 -2 450 0 450 1 0 149 -74 330
-165z m3681 -261 c-102 -103 -115 -112 -158 -118 -106 -15 -103 -14 -181 -89
-27 -26 -29 -34 -27 -89 l2 -61 -153 -147 c-84 -81 -160 -147 -169 -147 -18 0
-322 322 -334 355 -5 13 -9 42 -9 65 l0 42 568 301 567 301 3 -151 3 -150
-112 -112z m-2492 166 l332 -164 -40 -20 c-44 -22 -62 -50 -73 -108 -4 -21
-11 -38 -16 -38 -6 0 -9 -5 -8 -10 2 -6 -46 -37 -107 -69 l-109 -59 -330 165
-329 165 139 139 c121 121 185 173 204 165 3 -1 154 -76 337 -166z m2873 -352
c-1 -505 -1 -512 -19 -478 -10 19 -25 54 -32 78 -9 33 -18 44 -38 48 -14 3
-39 10 -55 15 -16 5 -41 9 -55 9 -51 0 -51 3 -51 325 l0 300 112 107 c62 59
119 107 126 108 9 0 12 -109 12 -512z m-1961 326 c-13 -15 -40 -33 -59 -41
-39 -17 -50 -29 -50 -58 0 -38 -21 -95 -34 -95 -19 0 -65 -39 -85 -71 l-17
-27 -79 43 c-44 23 -81 49 -82 56 -4 17 408 239 421 227 6 -4 0 -19 -15 -34z
m1687 -621 c-7 -8 -98 20 -101 31 -2 6 -6 38 -9 70 -4 40 -17 81 -41 128 -20
38 -33 73 -30 78 3 5 -3 17 -15 27 -20 17 -19 19 87 125 l108 108 3 -281 c1
-155 1 -284 -2 -286z m-2888 297 l254 -125 -120 -63 c-65 -34 -128 -62 -140
-62 -13 0 -80 64 -198 191 -99 106 -178 195 -177 199 1 5 -4 14 -12 20 -8 7
-15 19 -15 26 0 15 -8 19 408 -186z m-230 -52 c119 -126 188 -208 185 -217 -5
-20 -477 -272 -482 -258 -4 11 24 39 69 68 21 14 25 25 26 65 0 27 4 67 8 90
7 34 5 41 -8 41 -9 0 -16 -6 -16 -14 0 -22 -77 -14 -108 12 -2 2 6 22 17 46
12 23 21 53 21 65 0 30 16 39 29 17 6 -10 11 -13 11 -7 0 5 -6 19 -14 30 -19
25 -35 10 -47 -47 -16 -73 -30 -99 -53 -100 -12 -1 -3 -7 23 -15 56 -17 70
-30 42 -39 -20 -6 -59 -70 -75 -123 -4 -12 -21 -37 -37 -54 l-29 -32 -102 99
c-134 130 -137 135 -94 135 30 0 46 20 52 62 4 27 36 64 180 206 101 99 183
172 194 172 11 0 92 -78 208 -202z m1096 115 c97 -48 106 -57 106 -115 0 -16
9 -37 21 -49 19 -19 19 -22 5 -44 -8 -13 -28 -32 -45 -44 l-29 -21 -15 24
c-16 24 -92 56 -133 56 -13 0 -26 5 -29 10 -3 6 1 10 9 10 12 0 16 10 16 35 0
19 5 46 12 60 10 22 8 29 -13 51 -17 19 -20 27 -11 33 7 4 10 15 6 24 -3 9 -3
17 0 17 3 0 48 -21 100 -47z m776 -11 c0 -4 -4 -13 -8 -20 -6 -9 -12 -5 -20
13 -16 35 -15 37 8 25 11 -6 20 -14 20 -18z m-420 -61 c19 -41 21 -53 10 -66
-19 -23 -27 -18 -33 23 -3 20 -7 52 -11 70 -7 44 5 34 34 -27z m-699 -77 c17
-21 -18 -68 -65 -87 l-44 -18 -62 31 c-34 17 -59 34 -56 37 3 4 50 30 103 59
l98 52 8 -31 c5 -18 13 -37 18 -43z m685 -43 c-8 -13 -36 -15 -36 -3 0 4 5 13
12 20 14 14 34 0 24 -17z m-826 -113 c-10 -24 -23 -79 -29 -122 -6 -44 -15
-84 -21 -90 -12 -15 -17 -114 -7 -146 5 -16 -44 28 -133 120 -131 136 -187
209 -165 217 6 2 62 32 125 67 l115 63 67 -33 67 -34 -19 -42z m1550 -86 c117
-126 157 -182 128 -182 -7 0 -348 167 -356 175 -2 2 -1 22 3 44 5 31 11 41 26
41 16 0 19 7 19 43 0 52 8 64 30 40 9 -10 76 -82 150 -161z m500 116 c0 -5 20
-28 43 -51 24 -23 49 -54 55 -70 11 -25 9 -29 -21 -47 -26 -17 -80 -39 -155
-65 -27 -9 -36 -53 -23 -106 7 -27 10 -61 7 -74 l-6 -25 -43 21 c-23 12 -60
36 -82 54 -22 17 -48 35 -58 38 -10 4 -15 11 -12 17 3 5 1 10 -4 10 -33 0 4
48 131 170 129 124 168 153 168 128z m-2274 -254 c131 -139 155 -168 152 -191
-2 -21 -10 -29 -36 -35 -21 -6 -36 -18 -42 -33 -5 -13 -44 -47 -87 -76 -43
-29 -100 -71 -128 -94 -76 -64 -130 -88 -196 -88 -83 1 -163 21 -196 49 -15
13 -44 29 -64 34 -45 12 -65 33 -47 47 13 10 90 50 156 82 32 15 33 18 28 56
l-6 40 114 0 c82 0 119 4 128 13 11 11 10 16 -4 26 -10 7 -15 16 -12 19 9 9
-27 24 -76 31 -65 9 -82 22 -47 35 34 13 35 31 1 31 -46 0 -105 -23 -121 -47
-8 -13 -21 -23 -29 -23 -14 0 -103 -45 -118 -61 -6 -5 -20 -9 -32 -9 -13 0
-26 -4 -29 -10 -3 -5 -11 -10 -17 -10 -6 0 5 19 24 43 32 39 34 44 21 63 -14
21 -7 25 229 151 139 74 251 128 261 125 9 -2 87 -78 173 -168z m1718 29 l176
-88 -124 -124 -125 -124 -35 31 c-20 18 -49 34 -64 38 -15 3 -32 7 -39 9 -18
6 -22 288 -5 321 7 13 19 24 26 24 7 0 93 -39 190 -87z m-3737 -24 c42 -8 55
-16 65 -37 15 -30 94 -93 156 -123 51 -25 54 -45 8 -53 -35 -7 -61 -1 -86 19
-22 17 -124 39 -152 32 -27 -7 -48 15 -87 91 -12 23 -30 47 -40 54 -11 6 -17
18 -14 26 6 15 40 13 150 -9z m3156 -86 c4 -49 2 -63 -8 -63 -22 0 -24 12 -18
90 7 82 17 72 26 -27z m-468 -75 c-8 -85 -11 -101 -13 -63 -4 60 7 175 16 175
4 0 3 -51 -3 -112z m1320 37 c22 -17 45 -34 50 -36 6 -2 39 -35 74 -72 l65
-68 -13 -42 c-7 -23 -15 -56 -18 -74 l-5 -32 -89 44 -88 45 -155 -23 -155 -24
-5 21 c-12 43 -3 55 126 184 147 145 134 141 213 77z m-2272 -42 c-7 -2 -19
-2 -25 0 -7 3 -2 5 12 5 14 0 19 -2 13 -5z m2445 -63 l-2 -30 -22 21 c-12 11
-24 31 -27 44 -4 23 -3 24 25 9 22 -12 28 -21 26 -44z m-858 30 c9 -16 8 -18
-5 -14 -8 4 -15 12 -15 20 0 20 7 17 20 -6z m1630 -141 c0 -9 -14 -34 -31 -55
l-31 -39 8 35 c4 19 7 62 5 95 l-2 60 25 -40 c14 -22 26 -47 26 -56z m-4342
-93 c-3 -27 -14 -36 -118 -91 -96 -52 -117 -60 -128 -49 -24 25 -8 47 59 83
36 20 90 57 120 83 52 45 54 46 62 25 4 -12 7 -35 5 -51z m5272 55 c0 -5 -6
-14 -13 -20 -8 -6 -22 -29 -32 -51 -10 -22 -22 -40 -26 -40 -4 0 -21 -24 -38
-54 -41 -71 -56 -76 -71 -21 -9 32 -9 48 -1 64 7 12 11 31 10 44 -5 50 -1 56
49 62 26 3 61 10 77 14 41 12 45 12 45 2z m-3185 -31 c3 -5 12 -7 20 -3 12 4
15 -6 15 -51 0 -34 4 -56 11 -56 6 0 9 -6 7 -12 -3 -7 -37 -17 -76 -23 l-71
-11 -21 48 c-22 51 -42 67 -87 69 -15 1 12 6 62 10 56 6 95 14 104 24 18 17
27 19 36 5z m663 -30 c15 0 15 -2 2 -10 -23 -15 -50 -12 -50 6 0 11 5 14 16
10 9 -3 23 -6 32 -6z m-1038 -30 l35 -10 -3 -60 c-4 -69 -12 -73 -95 -43 -48
17 -48 18 -42 53 14 71 30 81 105 60z m204 4 c17 -7 60 -93 51 -102 -3 -3 -28
16 -55 43 -43 42 -48 51 -33 57 10 3 19 7 20 7 1 1 8 -2 17 -5z m-1833 -124
c73 -166 86 -199 99 -253 7 -26 28 -68 46 -94 l34 -48 -37 -19 c-25 -12 -67
-20 -123 -24 l-85 -4 0 281 c0 154 4 280 8 278 5 -1 31 -54 58 -117z m2299
101 c0 -16 -10 -21 -57 -27 -63 -8 -63 -8 -64 4 0 6 86 37 114 41 4 1 7 -8 7
-18z m-2385 -538 c-2 -8 -21 -13 -45 -13 l-41 0 -84 175 c-70 147 -83 181 -78
210 7 43 12 47 142 117 l106 57 3 -267 c1 -147 0 -272 -3 -279z m1819 496 c4
-28 5 -53 3 -55 -2 -2 -18 -7 -37 -10 -33 -7 -33 -7 -27 26 4 18 7 45 7 61 0
24 4 29 24 29 21 0 24 -6 30 -51z m76 6 c46 -47 45 -48 -16 -59 -30 -5 -32 -3
-38 32 -8 50 -8 72 2 72 4 0 28 -20 52 -45z m-710 5 c0 -5 -5 -10 -11 -10 -5
0 -7 5 -4 10 3 6 8 10 11 10 2 0 4 -4 4 -10z m1060 1 c0 -11 -78 -26 -87 -17
-8 7 36 25 65 25 12 1 22 -3 22 -8z m-2510 -40 c0 -17 -12 -41 -20 -41 -10 0
-20 37 -12 44 9 9 32 7 32 -3z m4614 -157 c12 -39 24 -58 42 -66 20 -9 24 -18
24 -55 0 -23 -2 -43 -5 -43 -2 0 -25 10 -50 22 l-45 22 0 88 c0 48 4 88 8 88
5 0 16 -25 26 -56z m-127 -66 c-3 -7 -5 -2 -5 12 0 14 2 19 5 13 2 -7 2 -19 0
-25z m291 -98 c46 -79 39 -88 -35 -45 -41 24 -43 28 -43 70 0 70 28 61 78 -25z
m-3965 -80 c14 -11 35 -20 46 -20 16 0 21 -6 21 -25 0 -14 -6 -28 -13 -31 -14
-5 -16 -131 -3 -153 4 -6 3 -11 -1 -11 -5 0 -7 -17 -5 -39 2 -21 0 -41 -5 -44
-4 -2 -46 -6 -93 -8 l-84 -4 -10 34 c-7 24 -7 36 1 38 25 9 -31 119 -80 156
-19 14 -49 30 -68 35 -31 8 -33 9 -14 19 33 18 147 55 195 63 72 12 86 11 113
-10z m562 -202 c-7 -62 -49 -141 -91 -173 -29 -22 -36 -24 -54 -13 -19 12 -20
23 -20 181 l0 168 85 -58 86 -58 -6 -47z m-385 10 c0 -72 -3 -129 -6 -125 -3
3 -7 59 -8 123 -2 106 -4 118 -22 125 -16 6 -15 8 9 8 l27 1 0 -132z m3290
107 c0 -7 -207 -270 -224 -284 -14 -12 -16 -10 -16 8 0 12 6 24 13 27 10 4 13
33 13 121 -1 116 -1 117 24 124 28 8 190 12 190 4z m-440 -74 c0 -17 4 -32 9
-35 4 -3 11 -40 13 -82 3 -42 9 -79 14 -83 5 -3 8 -43 6 -88 l-4 -83 -27 0
c-37 0 -131 33 -108 38 15 3 17 19 17 154 0 136 2 153 21 179 28 39 59 39 59
0z m-3590 -7 c0 -14 -3 -14 -15 -4 -8 7 -15 14 -15 16 0 2 7 4 15 4 8 0 15 -7
15 -16z m196 -23 c52 -22 107 -53 123 -68 26 -26 51 -64 51 -77 0 -14 -127 -4
-197 15 -101 27 -144 64 -133 114 15 69 26 70 156 16z m-1386 14 c0 -9 -12
-18 -30 -21 -27 -6 -30 -10 -30 -45 0 -32 3 -39 20 -39 17 0 20 -7 20 -51 l0
-50 -176 -172 c-97 -95 -190 -178 -206 -184 -20 -9 -85 -13 -194 -13 l-164 0
0 83 c1 52 5 88 14 99 9 12 697 389 744 407 1 1 2 -6 2 -14z m1210 -40 c0 -8
-2 -15 -4 -15 -2 0 -6 7 -10 15 -3 8 -1 15 4 15 6 0 10 -7 10 -15z m3022 -33
c11 -18 50 -44 117 -77 l101 -50 0 -187 0 -188 -109 0 -109 0 -213 228 c-118
125 -218 230 -223 234 -6 4 2 10 17 14 51 12 382 61 393 57 5 -2 17 -16 26
-31z m-1691 -64 l89 -62 -2 -186 -3 -185 -164 0 -164 0 -23 68 c-21 61 -21 67
-6 67 10 0 34 -13 54 -30 20 -16 48 -34 63 -40 29 -11 137 -13 173 -4 29 8 28
32 -3 44 -14 5 -25 14 -25 20 0 6 -15 25 -33 43 -18 18 -38 51 -44 73 l-12 39
19 -25 c11 -14 20 -20 20 -13 0 7 -14 27 -31 44 -31 31 -31 34 -25 98 6 68 15
111 23 111 2 0 44 -28 94 -62z m1399 -148 c90 -96 188 -201 219 -232 l55 -58
-672 0 c-540 0 -672 3 -672 13 0 25 114 124 170 147 30 12 62 28 70 35 8 7 35
19 60 25 25 7 61 20 80 31 47 24 123 97 117 112 -2 8 -27 12 -70 12 -37 0 -62
4 -57 9 4 4 105 23 224 41 118 19 228 36 243 38 59 9 68 2 233 -173z m3380
-47 c3 -2 7 -53 10 -113 4 -77 2 -111 -7 -119 -18 -17 -429 -15 -435 2 -2 6
-2 110 0 229 l4 217 211 -106 c117 -58 214 -107 217 -110z m-4113 131 c-3 -3
-12 -4 -19 -1 -8 3 -5 6 6 6 11 1 17 -2 13 -5z m3440 -36 c30 -7 64 -5 117 5
42 7 77 13 78 11 2 -1 2 -66 0 -143 -3 -139 -3 -141 -25 -137 -12 3 -57 10
-100 17 -81 12 -104 23 -59 27 85 7 120 44 85 91 -34 45 -59 52 -156 45 l-89
-6 27 43 c40 64 47 71 64 63 9 -3 35 -11 58 -16z m-6667 -163 l0 -176 -164 1
c-141 2 -164 4 -162 17 2 12 312 331 324 333 1 0 2 -79 2 -175z m2931 142 c9
-12 19 -44 22 -71 4 -27 11 -54 15 -60 24 -30 19 -45 -29 -92 l-49 -48 0 147
c0 154 6 173 41 124z m4651 -191 l96 -47 -15 -39 -16 -40 -127 0 c-98 0 -130
3 -139 14 -15 18 -13 188 2 198 6 3 31 -4 56 -16 25 -13 89 -44 143 -70z
m-1844 -28 c-3 -88 -4 -93 -26 -96 -42 -6 -52 14 -52 99 0 73 1 78 23 82 60
12 58 15 55 -85z m-5432 57 c118 0 123 8 -68 -93 -64 -34 -126 -62 -137 -62
-20 0 -21 6 -21 85 l0 86 63 -8 c34 -4 108 -8 163 -8z m5334 -59 c0 -49 -4
-77 -13 -85 -22 -18 -27 -2 -27 81 0 71 2 78 20 78 18 0 20 -7 20 -74z m203
20 c21 -8 69 -19 105 -22 77 -8 131 -37 111 -60 -6 -8 -20 -14 -30 -14 -10 0
-21 -4 -24 -10 -10 -15 -232 -13 -237 3 -2 6 -2 43 0 80 3 63 5 67 20 54 10
-8 34 -22 55 -31z m-5383 -8 c0 -11 8 -32 19 -46 l19 -27 -108 0 c-89 0 -111
-3 -127 -17 -13 -12 -35 -18 -64 -18 -44 1 -43 1 96 75 143 76 165 80 165 33z
m4691 11 c16 -11 37 -18 45 -15 11 4 14 1 11 -12 -3 -9 -8 -34 -12 -54 l-6
-38 -60 0 c-55 0 -59 1 -50 19 6 10 12 33 14 52 5 36 16 69 24 69 3 0 18 -9
34 -21z m1452 -6 c-7 -2 -21 -2 -30 0 -10 3 -4 5 12 5 17 0 24 -2 18 -5z
m1305 -26 c48 -44 49 -126 3 -176 -70 -75 -190 -50 -221 45 -19 56 33 141 95
157 36 8 100 -5 123 -26z m-3130 -47 c20 -5 46 -10 57 -10 11 0 27 -4 35 -10
25 -15 -8 -21 -101 -18 l-84 3 -3 49 -3 49 31 -26 c17 -15 47 -31 68 -37z
m1692 -15 c0 -25 -1 -25 -82 -25 -53 0 -98 6 -126 17 -63 24 -37 33 96 33
l112 0 0 -25z m249 14 c45 -8 68 -16 68 -25 0 -11 -28 -14 -139 -14 l-138 0 0
25 c0 24 2 25 71 25 38 0 101 -5 138 -11z m-6505 -84 l-14 -35 380 0 380 0 0
-156 c0 -121 -3 -159 -14 -170 -12 -12 -127 -14 -755 -14 -780 0 -760 -1 -727
43 8 10 132 81 276 158 189 100 272 139 297 139 26 0 35 5 43 25 10 26 27 33
100 38 25 2 46 4 47 5 1 1 -5 -14 -13 -33z m4327 4 c21 -14 33 -15 81 -5 31 6
60 15 64 19 4 4 46 7 94 7 76 0 90 -3 120 -25 l34 -25 -291 0 c-223 0 -298 3
-324 14 -35 14 -63 11 -53 -5 3 -5 -271 -9 -685 -9 l-691 0 0 25 0 25 679 0
c443 0 682 -3 686 -10 9 -14 28 -12 22 3 -7 19 231 7 264 -14z m-4541 -1 c0
-20 -39 -44 -263 -162 -144 -77 -270 -139 -279 -138 -10 0 -34 18 -55 38 l-37
37 119 115 c66 63 129 118 140 123 11 4 100 8 198 8 l177 1 0 -22z m2645 -3
c0 -19 -8 -20 -144 -23 -145 -3 -171 3 -171 34 0 12 28 14 158 12 149 -3 157
-4 157 -23z m2537 19 c3 -3 4 -14 1 -25 -5 -17 -15 -19 -97 -19 -82 1 -89 2
-71 15 11 8 25 19 30 24 11 10 128 15 137 5z m456 -22 c2 -14 -2 -22 -12 -22
-19 0 -29 17 -22 36 8 22 30 12 34 -14z m96 19 c13 -21 -7 -41 -40 -41 -26 0
-34 4 -34 18 0 10 3 22 7 25 10 10 61 8 67 -2z m249 3 c9 -3 13 -13 10 -25 -5
-17 -15 -19 -113 -19 -89 0 -109 3 -114 16 -3 9 -4 20 0 25 6 10 193 13 217 3z
m1362 -6 c2 -7 5 -56 7 -109 l4 -97 -202 101 c-112 56 -200 105 -198 109 3 4
91 8 195 8 143 0 191 -3 194 -12z m-1245 -43 c18 0 26 6 28 23 3 20 9 22 62
22 67 0 80 -12 80 -75 0 -74 -54 -125 -134 -125 -58 0 -112 43 -122 98 -6 31
-3 39 20 58 14 13 26 29 27 36 1 7 4 2 8 -12 5 -18 14 -25 31 -25z m-3378 -29
c4 -6 0 -13 -8 -16 -9 -3 -15 -9 -15 -13 2 -13 -263 -262 -292 -275 -40 -17
-1408 -17 -1425 0 -8 8 -12 60 -12 168 l0 155 873 -3 c637 -3 874 -7 879 -16z
m1597 0 c34 -19 278 -283 278 -301 0 -13 -123 -15 -1067 -15 -952 0 -1067 2
-1067 15 0 18 253 267 300 296 31 18 59 19 782 19 603 -1 755 -3 774 -14z
m1039 2 c8 -8 12 -57 12 -153 0 -96 -4 -145 -12 -153 -18 -18 -664 -17 -708 2
-35 14 -302 295 -294 308 3 4 227 8 498 8 369 0 495 -3 504 -12z m282 -153 l0
-165 -113 0 c-75 0 -117 4 -125 12 -13 13 -18 299 -5 311 3 4 60 7 125 7 l118
0 0 -165z m-6247 -74 l21 -21 -29 -28 c-34 -33 -129 -84 -139 -75 -3 4 -6 0
-6 -7 0 -7 -3 -11 -6 -7 -3 3 -17 2 -30 -4 -21 -8 -26 -5 -35 18 -13 35 12 93
55 130 27 23 36 25 90 20 41 -4 65 -12 79 -26z m27 -125 c-24 -73 -105 -111
-175 -82 -47 20 -40 30 58 84 112 61 138 61 117 -2z m1528 -3 c4 -10 7 -90 7
-178 l0 -160 -1045 -2 -1046 -3 -15 50 -16 50 156 82 c85 44 164 81 175 81 12
1 36 -7 55 -17 45 -24 126 -18 169 12 17 13 39 40 48 62 l18 40 743 0 c699 0
744 -1 751 -17z m1412 6 c0 -5 6 -7 13 -3 7 4 9 3 4 -2 -5 -5 -14 -9 -20 -9
-7 0 -12 -5 -12 -11 0 -6 -72 -82 -161 -167 l-161 -156 -501 -1 c-276 0 -513
2 -527 6 l-25 6 0 148 c0 82 4 160 10 174 l10 26 685 0 c475 0 685 -3 685 -11z
m2279 -2 c17 -7 28 -17 24 -21 -5 -4 -3 -6 3 -4 13 4 304 -304 297 -314 -2 -5
-660 -8 -1461 -7 l-1457 0 165 161 c91 88 179 169 195 179 29 18 69 19 1116
19 876 0 1093 -3 1118 -13z m719 1 c8 -8 12 -63 12 -179 l0 -168 -185 1 -186
0 -159 170 c-88 94 -157 174 -154 179 9 14 658 11 672 -3z m-6571 -244 c28
-17 48 -81 39 -126 -8 -42 -50 -85 -96 -98 -67 -19 -140 21 -157 88 -8 32 14
96 42 122 41 39 122 45 172 14z m3128 -211 c-55 -53 -261 -253 -458 -445 -356
-348 -357 -350 -381 -334 -14 8 -43 18 -65 22 l-41 7 0 423 0 424 523 0 522
-1 -100 -96z m3455 -13 c0 -102 -1 -110 -19 -110 -11 0 -34 -12 -52 -27 l-32
-27 -113 119 c-63 66 -119 128 -124 138 -10 16 0 17 165 17 l175 0 0 -110z
m89 -153 c36 -13 71 -64 71 -105 0 -40 -28 -91 -62 -112 -85 -52 -198 2 -198
95 0 42 36 100 72 118 39 19 70 20 117 4z m-4388 -643 c19 -5 59 -74 59 -103
0 -74 -62 -131 -143 -131 -42 0 -54 5 -83 34 -38 38 -45 86 -20 134 15 30 52
66 76 75 14 6 77 0 111 -9z"/>
<path d="M5218 4173 c0 -10 -2 -23 -2 -29 -1 -6 -7 -19 -15 -28 -8 -9 -11 -19
-8 -23 4 -3 9 2 13 11 3 9 13 16 21 16 10 0 11 5 5 16 -5 9 -7 25 -5 35 3 11
3 19 -1 19 -3 0 -7 -8 -8 -17z"/>
<path d="M600 7180 c0 -5 5 -10 10 -10 6 0 10 5 10 10 0 6 -4 10 -10 10 -5 0
-10 -4 -10 -10z"/>
<path d="M12434 1210 c0 -13 4 -16 10 -10 7 7 7 13 0 20 -6 6 -10 3 -10 -10z"/>
</g>
</svg>
